<svg width="26" height="29" viewBox="0 0 26 29" fill="none" xmlns="http://www.w3.org/2000/svg">
<g id="menusvg 1" clip-path="url(#clip0_140_15)">
<path id="Vector" d="M23.4374 8.58676H1.93973C0.881587 8.58676 0.0235871 7.62916 0.0235871 6.44801C0.0081496 5.0539 1.19115 4.24703 1.94623 4.30926C2.41207 4.31077 23.4233 4.30775 23.4691 4.30957C25.9808 4.4603 25.9664 8.47439 23.4374 8.58676Z" fill="#020203"/>
<path id="Vector_2" d="M23.4374 16.6829H1.93973C0.881587 16.6829 0.0235871 15.7256 0.0235871 14.5441C0.0081496 13.1503 1.19115 12.3435 1.94623 12.4057C2.41207 12.4069 23.4233 12.4042 23.4691 12.406C25.9808 12.5567 25.9664 16.5708 23.4374 16.6829Z" fill="#020203"/>
<g id="Clip path group">
<mask id="mask0_140_15" style="mask-type:luminance" maskUnits="userSpaceOnUse" x="0" y="20" width="26" height="5">
<g id="5c324223f9">
<path id="Vector_3" d="M0 20.4934H25.376V24.7733H0V20.4934Z" fill="white"/>
</g>
</mask>
<g mask="url(#mask0_140_15)">
<g id="Group">
<path id="Vector_4" d="M23.4374 24.7794H1.93973C0.881587 24.7794 0.0235871 23.8218 0.0235871 22.6406C0.0081496 21.2465 1.19115 20.4397 1.94623 20.5019C2.41207 20.5034 23.4233 20.5007 23.4691 20.5022C25.9808 20.6532 25.9664 24.667 23.4374 24.7794Z" fill="#020203"/>
</g>
</g>
</g>
</g>
<defs>
<clipPath id="clip0_140_15">
<rect width="26" height="29" fill="white"/>
</clipPath>
</defs>
</svg>
